HIERARCHY
ROOT Hips
{
	OFFSET 0.00000 0.00000 0.00000
	CHANNELS 6 Xposition Yposition Zposition Zrotation Yrotation Xrotation 
	JOINT LHipJoint
	{
		OFFSET 0 0 0
		CHANNELS 3 Zrotation Yrotation Xrotation
		JOINT LeftUpLeg
		{
			OFFSET 1.81638 -1.86202 0.89635
			CHANNELS 3 Zrotation Yrotation Xrotation
			JOINT LeftLeg
			{
				OFFSET 2.63464 -7.23861 0.00000
				CHANNELS 3 Zrotation Yrotation Xrotation
				JOINT LeftFoot
				{
					OFFSET 2.45871 -6.75336 0.00000
					CHANNELS 3 Zrotation Yrotation Xrotation
					JOINT LeftToeBase
					{
						OFFSET 0.34235 -0.94059 2.20020
						CHANNELS 3 Zrotation Yrotation Xrotation
						End Site
						{
							OFFSET 0.00000 -0.00000 1.18611
						}
					}
				}
			}
		}
	}
	JOINT RHipJoint
	{
		OFFSET 0 0 0
		CHANNELS 3 Zrotation Yrotation Xrotation
		JOINT RightUpLeg
		{
			OFFSET -1.84405 -1.86203 0.89635
			CHANNELS 3 Zrotation Yrotation Xrotation
			JOINT RightLeg
			{
				OFFSET -2.71067 -7.44751 0.00000
				CHANNELS 3 Zrotation Yrotation Xrotation
				JOINT RightFoot
				{
					OFFSET -2.47159 -6.79060 0.00000
					CHANNELS 3 Zrotation Yrotation Xrotation
					JOINT RightToeBase
					{
						OFFSET -0.26223 -0.72048 2.36007
						CHANNELS 3 Zrotation Yrotation Xrotation
						End Site
						{
							OFFSET -0.00000 -0.00000 1.23343
						}
					}
				}
			}
		}
	}
	JOINT LowerBack
	{
		OFFSET 0 0 0
		CHANNELS 3 Zrotation Yrotation Xrotation
		JOINT Spine
		{
			OFFSET 0.02089 1.99248 -0.22512
			CHANNELS 3 Zrotation Yrotation Xrotation
			JOINT Spine1
			{
				OFFSET 0.01476 2.01356 -0.03079
				CHANNELS 3 Zrotation Yrotation Xrotation
				JOINT Neck
				{
					OFFSET 0 0 0
					CHANNELS 3 Zrotation Yrotation Xrotation
					JOINT Neck1
					{
						OFFSET 0.04846 1.65098 0.06663
						CHANNELS 3 Zrotation Yrotation Xrotation
						JOINT Head
						{
							OFFSET -0.06061 1.60634 -0.07565
							CHANNELS 3 Zrotation Yrotation Xrotation
							End Site
							{
								OFFSET -0.02954 1.73562 -0.03642
							}
						}
					}
				}
				JOINT LeftShoulder
				{
					OFFSET 0 0 0
					CHANNELS 3 Zrotation Yrotation Xrotation
					JOINT LeftArm
					{
						OFFSET 3.45234 1.47051 -0.06993
						CHANNELS 3 Zrotation Yrotation Xrotation
						JOINT LeftForeArm
						{
							OFFSET 5.49313 -0.00000 0.00000
							CHANNELS 3 Zrotation Yrotation Xrotation
							JOINT LeftHand
							{
								OFFSET 3.29037 -0.00000 0.00000
								CHANNELS 3 Zrotation Yrotation Xrotation
								JOINT LeftFingerBase
								{
									OFFSET 0 0 0
									CHANNELS 3 Zrotation Yrotation Xrotation
									JOINT LeftHandIndex1
									{
										OFFSET 0.72966 -0.00000 0.00000
										CHANNELS 3 Zrotation Yrotation Xrotation
										End Site
										{
											OFFSET 0.58827 -0.00000 0.00000
										}
									}
								}
								JOINT LThumb
								{
									OFFSET 0 0 0
									CHANNELS 3 Zrotation Yrotation Xrotation
									End Site
									{
										OFFSET 0.59725 -0.00000 0.59725
									}
								}
							}
						}
					}
				}
				JOINT RightShoulder
				{
					OFFSET 0 0 0
					CHANNELS 3 Zrotation Yrotation Xrotation
					JOINT RightArm
					{
						OFFSET -3.41935 1.44327 0.20453
						CHANNELS 3 Zrotation Yrotation Xrotation
						JOINT RightForeArm
						{
							OFFSET -5.23684 -0.00000 0.00000
							CHANNELS 3 Zrotation Yrotation Xrotation
							JOINT RightHand
							{
								OFFSET -3.38251 -0.00000 0.00000
								CHANNELS 3 Zrotation Yrotation Xrotation
								JOINT RightFingerBase
								{
									OFFSET 0 0 0
									CHANNELS 3 Zrotation Yrotation Xrotation
									JOINT RightHandIndex1
									{
										OFFSET -0.69145 -0.00000 0.00000
										CHANNELS 3 Zrotation Yrotation Xrotation
										End Site
										{
											OFFSET -0.55747 -0.00000 0.00000
										}
									}
								}
								JOINT RThumb
								{
									OFFSET 0 0 0
									CHANNELS 3 Zrotation Yrotation Xrotation
									End Site
									{
										OFFSET -0.56598 -0.00000 0.56598
									}
								}
							}
						}
					}
				}
			}
		}
	}
}
MOTION
Frames: 15
Frame Time: .0083333
-38.6103 17.6572 -2.2682 0 0 0 0 0 0 -21 0 0 0 0 0 0 0 0 0 0 0 0 0 0 21 0 0 0 0 0 0 0 0 0 0 0 0 0 0 0 0 0 0 0 0 0 0 -16 0 0 21 0 0 11 0 0 0 -8 0 0 0 0 0 0 0 0 0 0 0 0 0 0 0 0 0 0 0 0 8 0 0 0 0 0 0 0 0 0 0 0 0 0 0 0 0 0
-38.6103 17.6572 -2.2682 -6.3639 80.2034 -4.6413 0.0000 0.0000 0.0000 -10.7748 -9.8371 -15.3040 1.8027 8.4424 24.0661 0.1381 -11.6060 -9.9938 0.0245 -1.0102 -2.7770 0.0000 0.0000 0.0000 24.4675 10.9786 0.1509 -1.5810 -7.9327 22.5097 -2.0284 4.0229 -25.9762 -0.8084 -5.7378 16.0255 1.3337 -2.0315 15.7830 3.7527 -1.9756 7.0015 3.5115 -0.8510 -1.3204 -0.7892 4.9465 -8.6436 -5.8545 6.8906 -0.7791 -1.4383 3.3650 1.4127 0.0000 -0.0000 0.0000 -84.5203 14.4422 29.5427 27.9495 -39.0697 -10.0919 -0.0000 0.0000 -3.3694 -25.2020 22.8622 -10.3614 -7.1250 0.0000 -0.0000 -49.3108 46.6400 -2.6464 0.0000 -0.0000 0.0000 65.8293 -10.7878 48.1787 -22.0141 32.9930 -6.5935 0.0000 0.0000 2.0017 8.0650 -20.5634 -2.8493 7.1250 -0.0000 -0.0000 34.4081 -47.3276 -2.2327
-38.6088 17.6592 -2.2672 -6.6136 80.2591 -4.9204 0.0000 0.0000 0.0000 -10.7441 -9.8528 -15.2700 1.8020 8.4410 24.0616 0.1352 -11.6304 -9.9705 0.0248 -1.0170 -2.7957 0.0000 0.0000 0.0000 24.5217 10.9895 0.2023 -1.5730 -7.9135 22.4516 -2.0255 3.9797 -25.9641 -0.8298 -5.8115 16.2385 1.4093 -1.9761 15.7212 3.7591 -1.8945 7.0121 3.4595 -0.8091 -1.2833 -0.4814 5.0545 -8.3740 -6.2572 7.0025 -0.9546 -1.6224 3.4232 1.3437 -0.0000 0.0000 0.0000 -84.4737 14.4478 29.6914 27.8565 -38.9838 -10.0333 -0.0000 0.0000 -3.3469 -25.1989 22.8755 -10.3656 -7.1250 0.0000 -0.0000 -49.3184 46.6504 -2.6635 -0.0000 0.0000 0.0000 65.9659 -11.0112 47.8122 -21.8066 32.7578 -6.4809 0.0000 0.0000 2.3256 7.3930 -19.8097 -2.5178 7.1250 -0.0000 -0.0000 33.4180 -46.7833 -1.6526
-38.6064 17.6573 -2.2669 -6.7204 80.3038 -5.0500 0.0000 0.0000 0.0000 -10.7417 -9.8623 -15.2708 1.8060 8.4498 24.0889 0.1332 -11.6514 -9.9574 0.0246 -1.0122 -2.7822 0.0000 0.0000 0.0000 24.5457 10.8853 0.2878 -1.5639 -7.8915 22.3850 -2.0302 3.9825 -25.9952 -0.8325 -5.8207 16.2650 1.4441 -1.9261 15.6784 3.7591 -1.8260 7.0099 3.4272 -0.7745 -1.2677 -0.1300 5.1764 -8.1176 -6.7039 7.1316 -1.1279 -1.8284 3.4895 1.2837 -0.0000 -0.0000 0.0000 -84.4795 14.4954 29.7070 27.7646 -38.8987 -9.9756 -0.0000 0.0000 -3.1991 -25.1440 22.7130 -10.2723 -7.1250 0.0000 -0.0000 -49.1587 46.5368 -2.4699 -0.0000 -0.0000 0.0000 66.0856 -11.2253 47.5883 -21.6794 32.6128 -6.4122 0.0000 0.0000 2.6116 7.1429 -19.7723 -2.4275 7.1250 -0.0000 -0.0000 33.1867 -46.7853 -1.6401
-38.6027 17.6560 -2.2676 -6.6806 80.3439 -5.0520 0.0000 0.0000 0.0000 -10.7731 -9.8603 -15.2287 1.8078 8.4537 24.1008 0.1334 -11.6889 -9.9816 0.0253 -1.0272 -2.8235 0.0000 0.0000 0.0000 24.5400 10.8023 0.3763 -1.5559 -7.8724 22.3272 -2.0306 3.9671 -26.0010 -0.8257 -5.7976 16.1983 1.4397 -1.9034 15.6348 3.7778 -1.7978 7.0239 3.4430 -0.7606 -1.2304 0.0236 5.3233 -7.8789 -7.0192 7.3111 -1.2676 -1.9564 3.5830 1.2256 0.0000 0.0000 0.0000 -84.5525 14.4917 29.7223 27.6379 -38.7807 -9.8961 -0.0000 0.0000 -3.1646 -25.0671 22.6894 -10.2274 -7.1250 0.0000 -0.0000 -49.0870 46.5309 -2.4546 0.0000 0.0000 0.0000 66.1257 -11.3602 47.4002 -21.5803 32.4994 -6.3589 0.0000 0.0000 2.8249 7.0315 -20.0813 -2.4250 7.1250 -0.0000 -0.0000 33.2635 -47.0629 -1.8985
-38.5971 17.6585 -2.2686 -6.8343 80.3808 -5.2287 0.0000 0.0000 0.0000 -10.7694 -9.8794 -15.1903 1.8120 8.4629 24.1292 0.1341 -11.7030 -9.9984 0.0254 -1.0281 -2.8262 0.0000 0.0000 0.0000 24.5510 10.7606 0.4102 -1.5471 -7.8512 22.2629 -2.0050 3.9238 -25.8368 -0.7999 -5.7085 15.9408 1.4613 -1.8927 15.6278 3.7922 -1.7808 6.9951 3.4435 -0.7522 -1.2582 0.2933 5.4804 -7.6319 -7.4716 7.4990 -1.3912 -2.1497 3.6787 1.1850 -0.0000 -0.0000 0.0000 -84.6252 14.5906 29.6710 27.5520 -38.7005 -9.8423 -0.0000 0.0000 -3.1348 -24.9105 22.6628 -10.1451 -7.1250 0.0000 -0.0000 -48.9570 46.5352 -2.4506 -0.0000 -0.0000 0.0000 66.1464 -11.5123 47.3882 -21.5022 32.4098 -6.3169 0.0000 0.0000 2.9201 5.2009 -19.7809 -1.7644 7.1250 -0.0000 -0.0000 31.5433 -47.0548 -1.7714
-38.5928 17.6586 -2.2693 -6.9692 80.4219 -5.3924 0.0000 0.0000 0.0000 -10.7684 -9.8876 -15.1668 1.8157 8.4711 24.1545 0.1334 -11.7302 -10.0055 0.0260 -1.0412 -2.8623 0.0000 0.0000 0.0000 24.5680 10.6916 0.4675 -1.5398 -7.8333 22.2088 -1.9947 3.9100 -25.7702 -0.7920 -5.6808 15.8609 1.4881 -1.8739 15.6073 3.8004 -1.7530 6.9825 3.4319 -0.7380 -1.2628 0.5458 5.6266 -7.3759 -7.8679 7.6714 -1.5371 -2.3244 3.7689 1.1328 -0.0000 0.0000 0.0000 -84.6756 14.6507 29.6416 27.4526 -38.6074 -9.7802 -0.0000 0.0000 -3.0774 -24.8046 22.6143 -10.0770 -7.1250 0.0000 -0.0000 -48.8465 46.5150 -2.4098 -0.0000 0.0000 0.0000 66.2005 -11.6677 47.2798 -21.4046 32.2976 -6.2647 0.0000 0.0000 3.0926 4.6561 -19.7676 -1.5778 7.1250 -0.0000 -0.0000 31.0698 -47.1171 -1.7915
-38.5884 17.6583 -2.2702 -7.1281 80.4650 -5.5850 0.0000 0.0000 0.0000 -10.7650 -9.8984 -15.1449 1.8214 8.4836 24.1929 0.1331 -11.7605 -10.0189 0.0268 -1.0564 -2.9040 0.0000 0.0000 0.0000 24.5903 10.6214 0.5365 -1.5316 -7.8134 22.1486 -1.9844 3.8874 -25.7044 -0.7820 -5.6456 15.7596 1.5157 -1.8625 15.6053 3.8062 -1.7341 6.9643 3.4196 -0.7283 -1.2826 0.7875 5.7762 -7.1160 -8.2521 7.8495 -1.6856 -2.4947 3.8630 1.0794 0.0000 -0.0000 0.0000 -84.7317 14.7208 29.5855 27.3529 -38.5136 -9.7181 -0.0000 0.0000 -3.0204 -24.6913 22.5663 -10.0061 -7.1250 0.0000 -0.0000 -48.7310 46.4963 -2.3712 0.0000 -0.0000 0.0000 66.2450 -11.8133 47.2147 -21.3175 32.1971 -6.2182 0.0000 0.0000 3.2377 4.3029 -19.8358 -1.4625 7.1250 -0.0000 -0.0000 30.8028 -47.2239 -1.8617
-38.5841 17.6569 -2.2713 -7.3238 80.5120 -5.8188 0.0000 0.0000 0.0000 -10.7542 -9.9194 -15.1328 1.8327 8.5085 24.2697 0.1340 -11.7991 -10.0525 0.0274 -1.0678 -2.9352 0.0000 0.0000 0.0000 24.6200 10.5417 0.6230 -1.5213 -7.7884 22.0731 -1.9744 3.8596 -25.6413 -0.7702 -5.6040 15.6396 1.5456 -1.8574 15.6193 3.8096 -1.7223 6.9423 3.4051 -0.7218 -1.3146 1.0190 5.9248 -6.8522 -8.6189 8.0266 -1.8397 -2.6590 3.9577 1.0233 -0.0000 0.0000 0.0000 -84.7884 14.7974 29.5089 27.2525 -38.4189 -9.6556 -0.0000 0.0000 -2.9654 -24.5856 22.5197 -9.9393 -7.1250 0.0000 -0.0000 -48.6220 46.4774 -2.3331 -0.0000 0.0000 0.0000 66.2817 -11.9504 47.1874 -21.2368 32.1037 -6.1753 0.0000 0.0000 3.3575 4.1614 -19.9426 -1.4216 7.1250 -0.0000 -0.0000 30.7377 -47.3355 -1.9494
-38.5798 17.6548 -2.2726 -7.5541 80.5611 -6.0879 0.0000 0.0000 0.0000 -10.7363 -9.9451 -15.1284 1.8470 8.5398 24.3662 0.1354 -11.8437 -10.0951 0.0277 -1.0744 -2.9535 0.0000 0.0000 0.0000 24.6585 10.4604 0.7244 -1.5095 -7.7594 21.9856 -1.9663 3.8223 -25.5931 -0.7579 -5.5601 15.5133 1.5748 -1.8547 15.6432 3.8103 -1.7134 6.9169 3.3891 -0.7169 -1.3555 1.2443 6.0682 -6.5875 -8.9662 8.1970 -1.9993 -2.8176 4.0500 0.9647 -0.0000 -0.0000 0.0000 -84.8407 14.8774 29.4179 27.1506 -38.3224 -9.5923 -0.0000 0.0000 -2.9122 -24.4955 22.4748 -9.8805 -7.1250 0.0000 -0.0000 -48.5252 46.4574 -2.2944 -0.0000 -0.0000 0.0000 66.3119 -12.0805 47.2002 -21.1604 32.0150 -6.1347 0.0000 0.0000 3.4492 4.2387 -20.0639 -1.4565 7.1250 -0.0000 -0.0000 30.8693 -47.4299 -2.0380
-38.5756 17.6520 -2.2739 -7.8128 80.6130 -6.3884 0.0000 0.0000 0.0000 -10.7136 -9.9704 -15.1305 1.8636 8.5760 24.4778 0.1367 -11.8984 -10.1426 0.0279 -1.0786 -2.9650 0.0000 0.0000 0.0000 24.7049 10.3769 0.8437 -1.4961 -7.7264 21.8862 -1.9606 3.7745 -25.5636 -0.7443 -5.5111 15.3721 1.6114 -1.8381 15.6718 3.7972 -1.6859 6.8818 3.3515 -0.7026 -1.4107 1.5246 6.1907 -6.2617 -9.3151 8.3329 -2.1911 -2.9918 4.1275 0.8869 0.0000 -0.0000 0.0000 -84.8388 14.9687 29.3779 27.0452 -38.2222 -9.5271 -0.0000 0.0000 -2.8677 -24.4221 22.4360 -9.8318 -7.1250 0.0000 -0.0000 -48.4448 46.4394 -2.2602 0.0000 -0.0000 0.0000 66.3797 -12.2440 47.2003 -21.0848 31.9272 -6.0947 0.0000 0.0000 3.5236 4.6275 -20.1940 -1.6005 7.1250 -0.0000 -0.0000 31.2744 -47.4888 -2.1201
-38.5716 17.6488 -2.2753 -8.0964 80.6685 -6.7148 0.0000 0.0000 0.0000 -10.6869 -9.9942 -15.1365 1.8812 8.6142 24.5957 0.1378 -11.9617 -10.1920 0.0280 -1.0810 -2.9717 0.0000 0.0000 0.0000 24.7583 10.2951 0.9748 -1.4816 -7.6906 21.7782 -1.9580 3.7160 -25.5565 -0.7293 -5.4563 15.2146 1.6554 -1.8048 15.7008 3.7686 -1.6365 6.8358 3.2899 -0.6774 -1.4793 1.8558 6.2840 -5.8839 -9.6506 8.4247 -2.4022 -3.1762 4.1848 0.7938 0.0000 0.0000 0.0000 -84.7723 15.0726 29.4067 26.9360 -38.1181 -9.4596 -0.0000 0.0000 -2.8405 -24.3733 22.4105 -9.7997 -7.1250 0.0000 -0.0000 -48.3916 46.4276 -2.2380 0.0000 0.0000 0.0000 66.4880 -12.4460 47.1930 -21.0063 31.8357 -6.0533 0.0000 0.0000 3.5768 5.1454 -20.2713 -1.7869 7.1250 -0.0000 -0.0000 31.7616 -47.4839 -2.1560
-38.5674 17.6456 -2.2768 -8.3983 80.7271 -7.0523 0.0000 0.0000 0.0000 -10.6570 -10.0285 -15.1438 1.8987 8.6517 24.7118 0.1392 -12.0219 -10.2430 0.0277 -1.0752 -2.9558 0.0000 0.0000 0.0000 24.8136 10.2210 1.1054 -1.4664 -7.6528 21.6643 -1.9568 3.6446 -25.5614 -0.7122 -5.3934 15.0342 1.7083 -1.7551 15.7155 3.7251 -1.5660 6.7812 3.2036 -0.6418 -1.5511 2.2280 6.3439 -5.4681 -9.9626 8.4692 -2.6254 -3.3656 4.2198 0.6883 -0.0000 0.0000 0.0000 -84.6426 15.1832 29.5115 26.8230 -38.0099 -9.3899 -0.0000 0.0000 -2.8328 -24.3453 22.3972 -9.7818 -7.1250 0.0000 -0.0000 -48.3620 46.4218 -2.2268 -0.0000 0.0000 0.0000 66.6319 -12.6815 47.1819 -20.9228 31.7381 -6.0093 0.0000 0.0000 3.6061 5.8095 -20.2728 -2.0190 7.1250 -0.0000 -0.0000 32.3310 -47.3935 -2.1240
-38.5629 17.6427 -2.2785 -8.6941 80.7887 -7.3777 0.0000 0.0000 0.0000 -10.6296 -10.0676 -15.1495 1.9147 8.6862 24.8184 0.1404 -12.0801 -10.2915 0.0273 -1.0665 -2.9317 0.0000 0.0000 0.0000 24.8644 10.1520 1.2287 -1.4512 -7.6148 21.5499 -1.9556 3.5706 -25.5669 -0.6955 -5.3313 14.8558 1.7672 -1.6893 15.7154 3.6662 -1.4755 6.7208 3.0937 -0.5964 -1.6224 2.6290 6.3699 -5.0284 -10.2416 8.4672 -2.8597 -3.5540 4.2323 0.5714 0.0000 -0.0000 0.0000 -84.4490 15.2946 29.7038 26.7037 -37.8952 -9.3166 -0.0000 0.0000 -2.8530 -24.3245 22.4049 -9.7756 -7.1250 0.0000 -0.0000 -48.3529 46.4308 -2.2400 0.0000 -0.0000 0.0000 66.8078 -12.9460 47.1754 -20.8373 31.6380 -5.9644 0.0000 0.0000 3.6151 6.6263 -20.2335 -2.3007 7.1250 -0.0000 -0.0000 33.0048 -47.2476 -2.0470
-38.5580 17.6407 -2.2804 -8.9875 80.8517 -7.6945 0.0000 0.0000 0.0000 -10.6058 -10.1046 -15.1590 1.9294 8.7175 24.9157 0.1412 -12.1385 -10.3343 0.0271 -1.0618 -2.9188 0.0000 0.0000 0.0000 24.9118 10.0936 1.3456 -1.4361 -7.5768 21.4358 -1.9549 3.4907 -25.5771 -0.6787 -5.2676 14.6733 1.8307 -1.6126 15.6991 3.5959 -1.3717 6.6584 2.9664 -0.5445 -1.6878 3.0267 6.3646 -4.5902 -10.4681 8.4255 -3.0931 -3.7271 4.2249 0.4487 -0.0000 0.0000 0.0000 -84.2066 15.4027 29.9744 26.5781 -37.7739 -9.2395 -0.0000 0.0000 -2.9070 -24.3164 22.4289 -9.7818 -7.1250 0.0000 -0.0000 -48.3647 46.4503 -2.2708 -0.0000 0.0000 0.0000 66.9978 -13.2269 47.1992 -20.7531 31.5390 -5.9203 0.0000 0.0000 3.5984 7.5849 -20.1881 -2.6311 7.1250 -0.0000 -0.0000 33.7903 -47.0776 -1.9499
